<svg width="20" height="20" viewBox="0 0 20 20" fill="none" xmlns="http://www.w3.org/2000/svg">
<path d="M15.3906 18.75C15.259 18.7505 15.1307 18.7095 15.0238 18.6328L9.99994 14.9906L4.97611 18.6328C4.86878 18.7106 4.73948 18.7523 4.60689 18.7519C4.4743 18.7514 4.3453 18.7087 4.23854 18.6301C4.13177 18.5515 4.05278 18.4409 4.01298 18.3145C3.97318 18.188 3.97463 18.0521 4.01713 17.9265L5.9765 12.123L0.898382 8.64061C0.788386 8.56526 0.705368 8.45671 0.661457 8.33082C0.617545 8.20494 0.615042 8.0683 0.654314 7.94089C0.693585 7.81348 0.772572 7.70196 0.879734 7.62264C0.986896 7.54331 1.11662 7.50033 1.24994 7.49998H7.51479L9.40541 1.68163C9.44614 1.55601 9.52561 1.44652 9.63242 1.36887C9.73923 1.29122 9.86789 1.24939 9.99994 1.24939C10.132 1.24939 10.2607 1.29122 10.3675 1.36887C10.4743 1.44652 10.5537 1.55601 10.5945 1.68163L12.4851 7.50194H18.7499C18.8834 7.50187 19.0134 7.54455 19.1209 7.62372C19.2284 7.7029 19.3077 7.8144 19.3472 7.94191C19.3867 8.06942 19.3844 8.20624 19.3405 8.33232C19.2967 8.4584 19.2136 8.56712 19.1035 8.64256L14.0234 12.123L15.9816 17.925C16.0133 18.0189 16.0222 18.119 16.0076 18.2171C15.993 18.3152 15.9553 18.4084 15.8975 18.489C15.8398 18.5696 15.7637 18.6353 15.6755 18.6807C15.5874 18.726 15.4897 18.7498 15.3906 18.75Z" fill="#292929"/>
</svg>
